# xmcd
# 
# Track frame offsets:
#     150
#     22619
#     41443
#     53712
#     67970
#     82711
#     104620
#     126216
#     145237
#     159613
#     175352
#     191380
#     205868
#     226184
#     238698
#     254710
#     269921
#     291148
#     311643
#     328199
#     339787
# 
# Disc length: 4694
# 
# Revision: 2
# Processed by: cddbd v1.5.2PL0 Copyright (c) Steve Scherf et al.
# Submitted via: fre:ac v1.0.17
# 
DISCID=2b125415
DTITLE=Various Artist - Alternative Country Edition [CD2v2)
DYEAR=2009
DGENRE=Country
TTITLE0=Elton John - The Captain And The Kid
TTITLE1=Madison Violet - Crying
TTITLE2=Martin Gallop - Mannequin
TTITLE3=Smokestack Lightnin' - Take A Lot Of Pride
TTITLE4=Richard Hawley - Just Like The Rain
TTITLE5=Lambchop - About My Lighter
TTITLE6=Badly Drawn Boy - The Way Things Used To Be
TTITLE7=Bright Eyes - Four Winds (Radio Edit)
TTITLE8=Bob Evans - Sadness and Whiskey
TTITLE9=Glen Campbell - These Days
TTITLE10=Leeroy Stagger - Too Many Rainy Days
TTITLE11=Priscilla Ahn - Leave The Light On
TTITLE12=The Notting Hillbillies - Your Own Sweet Way
TTITLE13=Norah Jones - Wake Me Up
TTITLE14=Ryan Adams - Evergreen (Album Version)
TTITLE15=Wilco - Sky Blue Sky
TTITLE16=Todd Thibaud - The Right One
TTITLE17=Amos Lee - Ease Back
TTITLE18=Rosanne Cash Feat. Johnny Cash - September When It Comes
TTITLE19=Johnny Cash - A Thing Called Love
TTITLE20=Dean Martin - Gentle On My Mind
EXTD=YEAR: 2009
EXTT0=
EXTT1=
EXTT2=
EXTT3=
EXTT4=
EXTT5=
EXTT6=
EXTT7=
EXTT8=
EXTT9=
EXTT10=
EXTT11=
EXTT12=
EXTT13=
EXTT14=
EXTT15=
EXTT16=
EXTT17=
EXTT18=
EXTT19=
EXTT20=
PLAYORDER=
